<svg xmlns="http://www.w3.org/2000/svg" viewBox="0 0 576 325.73"><defs><style>.cls-1,.cls-2,.cls-3,.cls-4{fill:none;stroke:#fff;stroke-miterlimit:10;}.cls-1{stroke-width:9px;}.cls-2{stroke-width:6px;}.cls-3{stroke-width:4.3px;}.cls-4{stroke-width:3px;}</style></defs><g id="Layer_2" data-name="Layer 2"><g id="Layer_1-2" data-name="Layer 1"><polyline class="cls-1" points="121.5 25.73 26 25.73 25.61 25.73 25.61 121.23"/><polyline class="cls-2" points="77.11 12.05 12.26 12.05 12 12.05 12 76.91"/><polyline class="cls-3" points="58.4 11.73 11.9 11.73 11.71 11.73 11.71 58.23"/><polyline class="cls-4" points="40.62 1.5 1.66 1.5 1.5 1.5 1.5 40.46"/><polyline class="cls-1" points="454.5 25.73 550 25.73 550.38 25.73 550.38 121.23"/><polyline class="cls-2" points="498.88 12.05 563.74 12.05 564 12.05 564 76.91"/><polyline class="cls-3" points="517.6 11.73 564.1 11.73 564.29 11.73 564.29 58.23"/><polyline class="cls-4" points="535.38 1.5 574.34 1.5 574.5 1.5 574.5 40.46"/><polyline class="cls-1" points="121.5 300 26 300 25.61 300 25.61 204.5"/><polyline class="cls-2" points="77.11 313.68 12.26 313.68 12 313.68 12 248.82"/><polyline class="cls-3" points="58.4 314 11.9 314 11.71 314 11.71 267.5"/><polyline class="cls-4" points="40.62 324.23 1.66 324.23 1.5 324.23 1.5 285.27"/><polyline class="cls-1" points="454.5 300 550 300 550.38 300 550.38 204.5"/><polyline class="cls-2" points="498.88 313.68 563.74 313.68 564 313.68 564 248.82"/><polyline class="cls-3" points="517.6 314 564.1 314 564.29 314 564.29 267.5"/><polyline class="cls-4" points="535.38 324.23 574.34 324.23 574.5 324.23 574.5 285.27"/></g></g></svg>